<?xml version="1.0" encoding="utf-8"?>
<!-- Generator: Adobe Illustrator 27.5.0, SVG Export Plug-In . SVG Version: 6.00 Build 0)  -->
<svg version="1.1" id="圖層_1" xmlns="http://www.w3.org/2000/svg" xmlns:xlink="http://www.w3.org/1999/xlink" x="0px" y="0px"
	 viewBox="0 0 366.6 64" style="enable-background:new 0 0 366.6 64;" xml:space="preserve">
<style type="text/css">
	.st0{fill-rule:evenodd;clip-rule:evenodd;}
	.st1{fill:#003764;}
	.st2{fill:#FFFFFF;}
	.st3{fill:none;}
</style>
<g id="_圖層_2">
	<path class="st0" d="M104.8,39.9c0-1.4-0.2-2.8-0.5-4.1c-0.3-1.2-0.3-2.5-0.3-3.8c0-0.3,0-0.9-0.2-1.1c-0.2-0.1-0.2,0-0.3-0.3
		c-0.9-2.6,0.6-4.6,0.7-7.1c0-1.4-0.3-2.8-0.4-4.3c0-1.3,0.3-2.5,0.4-3.8c0-1.1-0.5-2-0.5-3.1c0-0.2,0-0.4,0-0.6
		c-0.2-0.9-2.3-1.4-3-1.7c-0.1,0-0.3,0-0.4-0.1c-0.2,0-0.3-0.1-0.5-0.1c-0.1,0-0.3,0-0.4,0c-0.3,0-0.6-0.2-0.9-0.3
		c-0.7-0.2-1.4,0-2.1,0c-0.8,0-1,0-1.6-0.5c-0.5-0.4-1.3-0.1-1.9-0.2c-0.3,0-0.7,0-1,0S91.4,9,91.1,9.1c-0.3,0-0.5-0.1-0.8,0
		c-0.8,0-1.5-0.3-2.3-0.4c-1.6,0-3.1,0-4.7,0c-0.3,0-0.8,0-0.9,0.4c0,0.3,0.1,0.6,0.4,0.8c1.1,1,2.5,1.8,4,2.1
		c0.9,0.2,1.8,0.3,2.7,0.1c1-0.2,1.9-0.8,2.8-0.6c0.3,0,0.7,0.2,1,0.1c0.2,0,0.3-0.2,0.5-0.4c1.3-0.9,4,0.2,4.6,1.5
		c0.1,0.3,0.2,0.6,0.3,0.9c0.2,0.6,0.4,1.1,0.6,1.7c0,0.1,0,0.2,0.1,0.4c0,0.1,0,0.2,0.2,0.4c0,0.1,0.2,0.2,0.3,0.4
		c0.2,0.3,0.2,0.7,0.2,1.1c0,2.6-0.2,5.2-0.2,7.8c0,1,0,2,0,3c0,2,0,4.1,0,6.1c0,0.9-0.1,1.8-0.2,2.7c0,0.5-0.2,1.2-0.9,1
		c-0.3-0.1-0.6-0.4-0.9-0.6c-0.2-0.1-0.3-0.2-0.4-0.4s-0.1-0.5,0-0.8c0-0.3,0-0.5,0-0.8S97.3,35.1,97,35c0-0.9-1-1.6-1.3-2.3
		c-0.2-0.5-0.2-1.2-0.2-1.7c0-0.4-0.1-1.4,0.3-1.7c0.1-0.1,0.3,0,0.4-0.2c0.1-0.1,0.2-0.3,0.2-0.5s0-0.4,0-0.6s0.2-0.4,0.4-0.5
		c0.4-0.5,0.3-1.1,0.2-1.7c0-1.2-0.2-2.5,0-3.7c0-0.5,0-0.9-0.5-1.1s-0.9-0.6-1.3-1.1c-0.3-0.4-0.5-0.9-0.8-1.4
		c-0.2-0.4-0.5-0.9-0.2-1.3c0.2-0.2,0.4-0.2,0.4-0.5s0-0.6,0-0.9c0-0.6-0.1-1.1-0.3-1.7c0-0.4-0.2-1-0.7-1.1c-0.6-0.2-1.7,0-2.3,0.2
		c-0.2,0.1-0.4,0.3-0.5,0.6c0,0.3,0.2,0.6,0,0.9c0,0.1-0.2,0.1-0.3,0.2c-0.8,0.3-1.5,0.4-2.4,0.4c-0.6,0-1.1,0-1.6,0.3
		s-0.8,0.8-1.3,1.1c-0.4,0.3-1,0.5-1.5,0.7c-0.3,0-0.6,0.2-0.8,0c-0.1-0.1-0.2-0.2-0.3-0.3c-0.1,0-0.2,0-0.3,0
		c-0.2,0-0.2-0.2-0.3-0.4c-0.7-1.1-2.9-1.4-3.2,0.3c0,0.2,0,0.4,0,0.6c-0.2,0.4-0.4,0.4-0.3,1c0,0.4,0.3,0.8,0.6,1
		c0.4,0.4,0.9,0.7,1.3,1.1s1,0.7,1,1.3s-0.4,1.2-0.7,1.9c-0.2,0.4-0.2,1.1-0.6,1.4c0,0-0.2,0.1-0.3,0.2c0,0.1,0,0.2,0,0.4
		c0,0.4,0,0.9,0,1.3c0,0.3-0.3,0.5-0.4,0.8c-0.2,0.4-0.1,1.2,0.2,1.6c0.3,0.3,0.8,0,1.1,0c0.8-0.3,1.7-1.4,2.7-1.3
		c0.2,0.6-0.1,1.4-0.5,1.9s-0.8,0.9-1.1,1.5c-0.2,0.3-0.3,0.6-0.4,0.9c-0.1,0.3,0,0.7,0,1s-0.2,0.5-0.3,0.8c-0.2,0.3-0.1,0.6,0,1
		c0.2,0.5,0.6,0.8,0.7,1.4c0.9,0.2,2.3-1.5,3-2c1.1-0.9,2.1-1.8,3.4-2.2c0.2,0,2.7-0.9,2.8-0.8c0.2,1-0.6,2.3-1.1,3.1
		c-0.6,0.9-1.2,1.8-2,2.5c-0.4,0.4-0.8,0.8-1.3,1.1c-0.2,0.2-0.4,0.2-0.7,0.2c-0.2,0-0.3,0-0.5,0.2c-0.2,0.3-0.2,0.7-0.7,0.9
		c-0.9,0.4-1.9,0.1-2.8,0.7c-0.3-0.3-0.8-0.3-1.2-0.3c-0.8,0-1.5-0.5-1.8-1.2s0-1.1,0-1.7c0-1.4,0-2.7,0-4.1c0-1,0-1.9,0-2.8
		c0-0.5,0.2-1.9-0.3-2.2c0,0-0.1,0-0.2-0.1c0,0,0-0.2,0-0.3c0-2.4,0.5-5-0.6-7.2c-0.2-0.4-0.6-1-1-1.2c-0.3-0.1-0.9-0.2-0.9,0.2
		c-0.2,1,0,2,0.2,3c0.1,0.5,0.6,1.2,0.5,1.6c0,0.1-0.1,0.3-0.2,0.4c-0.4,0.7,0,1.5,0,2.3c0,0.5,0,1.1-0.2,1.6
		c-0.3,1.7-0.6,3.4-1.2,4.9s-0.7,2.7-0.4,4.3c0.2,1.2,0.4,2.5,0.9,3.7c0.4,0.9,1,1.5,2,1.6c1.3,0.1,2.6-0.3,3.9-0.4
		c1.3-0.1,2.6-0.3,3.8-0.8c0.6-0.3,1.2-0.5,1.9-0.5c1.1,0,1.9-0.2,2.9-0.5c0.7-0.2,1.4-0.2,2.1-0.1c0.4,0,0.9,0.2,1.2,0
		c0.1,0,0.2-0.1,0.3-0.2c0.4-0.2,0.8,0,1.2,0c0.9,0.2,1.8,0.3,2.4,0.9c0.6,0.6,0.8,1.5,1.2,2.1c0,0.1,0.2,0.3,0.3,0.4
		c0.4,0.6,0.7,1.1,1.1,1.7c0.2,0.3,0.3,0.7,0.6,1c0.3,0.3,0.7,0.5,1,0.3c0.3,0,0.5-0.3,0.8-0.5c0.2,0,0.4-0.1,0.6-0.2
		c0.2,0,0.3-0.3,0.4-0.4c0.2-0.2,0.3-0.5,0.5-0.7c0.2-0.4,0.4-0.7,0.4-1.2c0-0.7,0.4-1.2,0.6-1.8c0.2-0.7,0.2-1.3,0.2-2l0,0
		L104.8,39.9z M89.9,28.1c-0.2,0.3,0,0.3-0.4,0.5c-0.4,0.3-0.7,0.4-1,0.7c0,0,0,0.2-0.1,0.2s-0.3,0-0.4,0s-0.2,0.2-0.3,0.2
		c-0.4,0.3-0.9,0.2-1.4,0.1c0-0.5,0.6-1.1,1-1.5s1.1-0.5,1.4-1c0.2-0.3,0.1-0.6,0.1-1c0-0.6,0.2-0.9-0.6-1.1c-0.2,0-0.4,0-0.6-0.1
		c-0.4,0-0.8-0.2-1.2-0.2c-0.9-0.2-1.9-0.2-2.8-0.2s0.6-1.7,0.7-1.9c0.3-0.6,0.9-1.1,1.4-1.5c0.4-0.3,0.9-0.9,1.5-0.9
		c0.1,0,0.2,0,0.3,0.1c1.2,0.7,1.6,2.3,2.1,3.5s1.2,2.7,0.3,3.9l0,0V28.1z M94.2,35.5c0,0.5,0,1-0.3,1.5c-0.2,0.3-0.5,0.2-0.8,0.2
		S92,37.3,91.8,37l0,0c-0.1-0.4,0.3-1.1,0.6-1.4c0-0.1,0.8-1.1,0.9-1.1H94C94.4,34.5,94.3,35.3,94.2,35.5L94.2,35.5L94.2,35.5z
		 M94.7,23.9c0,0.2-0.3,0.4-0.5,0.6c-0.5,0.6-1.3,0.3-1.8-0.2c-0.4-0.5-0.7-1.2-0.9-1.7c-0.3-0.6-0.7-1.2-0.9-1.9
		c0-0.2-0.2-0.5-0.2-0.8c0-0.4,0.8-0.8,1.1-0.9c0.2,0,0.5,0,0.8,0h1.3c0.3,0,0.5,0,0.6,0.2c0,0.1,0.1,0.2,0.2,0.3
		c0.2,0.1,0.3,0.1,0.4,0.4c0.1,0.4,0,0.9,0,1.3s0,1.4,0,1.5c0,0,0,1.1,0,1.4l0,0L94.7,23.9z"/>
	<path class="st0" d="M122.2,14.3c0.3,0.4,0.6,0.7,0.9,1.2c0.4,0.7,0.2,1.4,1.1,1.7c0.3,0,0.5,0.2,0.8,0.4c1,0.5,2.4,0.1,3.5,0
		c0,0,0.1,0,0.2,0l0,0c0.6-0.6-0.6-2.4-1-2.8c-0.4-0.3-0.9-0.5-1.3-0.8c-0.5-0.4-0.7-0.9-1.4-1c-1.3-0.2-2.4-0.9-3.6-1.2
		c0,0.2-0.3,0.5-0.4,0.7c0,0.2,0.2,0.5,0.2,0.7c0.2,0.5,0.6,0.9,0.9,1.4l0,0L122.2,14.3z"/>
	<path class="st0" d="M139.8,39.5c-0.3-0.3-0.7-0.6-1.1-0.8c-2.3-1.1-4.8-1.6-7.3-1.3c-0.6,0-1.3,0-1.4-0.6c0-0.4,0.2-0.7,0.5-0.9
		c1.9-1.7,3.2-4.1,3.6-6.6c0.2-0.9,0.2-1.9-0.4-2.7c-0.4-0.6-1.2-0.9-2-1c-0.8,0-1.5,0.2-2.2,0.4c-0.4,0.1-0.7,0.3-1.1,0.5
		c-0.4,0.3-0.7,0.8-1,1.2c-1,1.4-2.4,2.4-3.8,3.4c-0.4,0.3-0.9,0.6-1.4,0.7c-0.5,0-1.2-0.2-1.3-0.7c-0.1-0.4,0.1-0.9,0.3-1.3
		c0.4-0.8,0.9-1.5,1.4-2.3c0.8-1.4,1.7-2.9,3.1-3.8c1-0.7,2.3-1,3.4-1.5c1-0.4,1.9-0.9,2.8-1.5c0.3-0.2,0.5-0.4,0.6-0.7
		c0-0.2,0-0.5-0.1-0.6c-0.2-0.2-0.4-0.4-0.6-0.5c-1.5-0.6-3.1,0.2-4.6,0.8c-2.6,1.1-5.3,1.8-8.1,2.1c-0.7,0-4.4,0.5-3.6,1.8
		c0.1,0.2,0.4,0.4,0.6,0.5c1.2,0.6,2.6,0.9,4,0.7c0.6,0,1.3-0.1,1.5,0.4c0.1,0.4,0,0.7-0.3,1c-0.7,1-1.4,1.9-2.1,2.8
		c-0.4,0.5-0.8,0.9-1.2,1.3c-0.3,0.3-0.6,0.6-0.9,0.9l0,0v0.1c0.7,0.7,1,1.6,1.3,2.5c0.3,0.8,0.8,1.6,1.6,1.8c0.6,0.2,1.3,0,1.8-0.2
		c1.3-0.5,2.5-1.3,3.6-2.2c0.6-0.5,1.1-1,1.3-1.8c0.1-0.6,0-1.2,0.1-1.8c0.2-0.8,0.8-1.5,1.7-1.7c0.1,0,0.3,0,0.4,0
		c0.1,0.1,0.1,0.3,0.1,0.5c-0.3,2.6-2.2,4.8-4.1,6.7c-1.9,2-4.1,3.9-6.8,4.5c-0.5,0-1,0.1-1.4,0.4c-0.4,0.2-0.7,0.8-0.6,1.2
		c0.1,0.3,0.3,0.4,0.6,0.6c0.8,0.6,1.8,1.1,2.9,1c0.5,0,0.9-0.2,1.3-0.4c1-0.3,2.1-0.4,3.1-0.6c2.7-0.5,5.4-1.7,8.2-1.5
		c2.1,0.1,4.2,1.1,6.3,0.5c0.5-0.1,0.9-0.3,1.1-0.8c0.2-0.4,0-0.9-0.2-1.3l0,0L139.8,39.5z"/>
	<path class="st0" d="M179.8,31.1c0,0-0.1,0.5-0.7,0.4c-1.2-0.3-2.2-1.1-3.3-1.6c-0.6-0.2-1.2-0.6-1.9-0.7c-0.5,0-1,0.3-1.1,0.4
		c-0.2,0-1.6,0.9-1.8,1.5s0,2,0,2.7c0,1.6-0.1,3.2-0.7,4.7c-0.3,0.8-0.9,1.5-1.1,2.6c-2,0.6-3.9,1.2-5.9,1.8h-0.4v-1.1
		c0.4-0.1,0.7-0.2,1.1-0.4c0-0.1,0.5-0.4,0.7-0.4c0-0.1,0.7-0.4,1.1-0.4c1.4-0.6,2.6-1.6,3-3.3c0.6-0.7,0.6-1.5,0.5-2.3
		c0-0.2-0.5-1.5-0.5-1.4c0.2-1.3-1.7-1.8-2.3-2.5l-0.4-0.4c0.5-0.6,2.5-1.7,1.9-3.3c0,0-0.6-0.5-0.8-0.7c1.1-1,2.2-2,3.3-3
		c0.7-1,0.8-1.9,1.9-2.6V20c-0.9-0.2-1.8-0.6-2.6-0.9c-0.7-0.2-1.4-0.1-2.1-0.3c-0.9-0.2-1.6-0.8-2.5-0.9c-0.3,0-2.5,0.1-2.5,0.2
		c0.9-1.5,2.9-3.2,4.4-4.1c0-1.6-0.4-2-1.5-2.6v-3c1-0.5,2-1,3-1.5V6.2c0.4-0.4,0.2,0,0.4-0.7c-0.9-0.5-1.8-0.9-3-1.1
		c0,0-0.3-0.7-0.7-1.3c-0.6-0.9-1.1-0.8-2-0.2c-0.3,0.2-1.5,0.8-0.6,1.1s0.2,2.5-0.3,3.1c-0.3,0.3-3.1,1.5-3.1,1v1.1
		c1.1,0.1,2.2,0.2,3.3,0.4v3c-1.7,0-2,0.2-3,0.7c-0.1,0,0,1.4,0,1.6c0.3,0.3,1,0.3,1.4,0.2c0,0,0.1,0.8,0,0.8
		c-1.1,0.2-1.4,0.7-2.2,1.1c0,3.4,1.1,3.5,3.7,3.3c0.6,0-1.2,1.3-1.1,1.2c-0.4,0.3-4.6,3-5.3,3.4c-0.3,0.2-0.9,0.5-1.2,0.6
		c-0.3,0.2-1,0.4-1.4,0.7c-0.9,0.6-2,1.2-2.8,1.8c-0.4,0.3-0.6,0.7-0.9,0.9c-0.7,0.5-1.6,0.9-2.4,1c0.1-0.9-0.6-1.1-0.1-2.3
		c0.4-0.8,1.1-1.7,1.9-2.1v-0.4c-1.3,0.3-4.2,1.7-4.8,2.6c-0.4,0.6,0,0.8-0.7,1.5c0,2.5,0.4,3.3,1.1,4.8c0.3,0,2.1,0.8,2.2,0.7
		c0.2-0.4,1.1-0.5,1.5-0.9c1.4-1,2.5-2.4,3.8-3.5c0.4-0.4,0.8-0.2,1.2-0.6c0.7-0.6,1.1-1.4,1.9-1.8c0.7-0.4,1.4-0.8,2-1.3
		c0.5-0.4,1.6-0.9,1.9-1.5c0.4-0.8,4-2.3,4.5-2.6c0.9-0.5,2.1-1,3.1-1c0,1-1,1.4-1.3,2.2c-0.9,2.1-3.9,2.7-4.9,2.9
		c0,0-1.3,0.9-0.7,3.3c0.7-0.1,1.5-0.2,2.2-0.4c0.1-0.2,0.2-0.5,0.4-0.7c0.4,0,1.1-0.2,1.1-0.4h0.4c-0.4,1.4-1.4,1.7-2.6,2.2v1.8
		c0.1,0,0.4,0.2,0.4,0.4c0.6-0.1,1.2-0.2,1.9-0.4c1.7-0.3,2.8,2.6,2.9,2.6c0,0.7-0.5,2.1-1.1,2.5c-0.4,0.3,0,0-0.4,0.4h-0.4v-1.1
		c0.1,0,0.9-1.7-0.7-3c-0.1,0-1.6,0-1.6,0s-1.2,0-1.7,0c-0.9,0.7-1.7,1.5-2.6,2.2c-0.4,0.6,0,0.8-0.7,1.5c0,2.2,0.5,3,1.9,3.7
		c-0.5,1.9-0.9,0.8-2.2,1.5c-0.1,0-0.3,0.5-0.7,0.7c0.1,1.5,0.5,1.7,0.7,3c1.7,0,3.3-0.2,4.9-0.7c0.5-0.2,3.9-1,4-1.2
		c0.5-1.5,7.9-0.7,7.8-1.8c-0.4-3.5-0.7-6.9-1.1-10.4c2.4,0.2,3,1.3,4.8,1.8c0.9-0.1,1.7-0.2,2.6-0.4c0.4-0.9,0.7-1.7,1.1-2.6
		c-0.5-0.2-0.6-0.5-1.5-0.4l0,0L179.8,31.1z M161.9,38.5c-0.3,0.5-0.7,1.4-1.4,1.1c-0.8-0.3-0.3-1.9,0-2.4c0.2-0.4,0.5-0.8,0.7-1.1
		c0-0.1,0.2-0.4,0.4-0.5c0.3,0,0.8,0.4,1.1,0.4C162.3,36.8,162.3,37.8,161.9,38.5L161.9,38.5L161.9,38.5z"/>
	<path class="st0" d="M199.8,24.1c0.1,0.4,0.2,0.7,0.4,1.1c0,0.1,1.3-0.2,1.5-0.3c0.5-0.2,0.6-0.6,0.6-1.2c0-0.3,0-0.5,0-0.8
		c0-0.4,0.3-0.7,0.4-1c0-0.1,0-0.4,0-0.4s0.4,0,0.5,0c0.4,0.1,0.7,0.3,1,0.5c0.2,0.1,1,0.9,1.1,0.9c0.5,0,0.9,0,1.4,0
		c0.3-1,0.5-1.6,0.2-2.7c0-0.4-0.6-2-0.9-2.2c-0.7-0.2-1.5-0.5-2.2-0.7c0,0-0.7,0-1.1-0.4c0.8-0.4,1.4-0.7,2.6-0.7
		c0-0.3,0-3.3,0-3.3s0.6-0.4,0.4-1.1c-0.2-0.1-0.5-0.2-0.7-0.4v-0.7h1.1V9.6c-1.1-0.4-2.3-0.5-3-1.5c-2.4,0-2.7,0.2-3,2.2
		c-2.9,0.5-3.2,0.7-5.9,0.7c-0.2,0.6-0.7,1.9-0.4,3h0.4c0.6,2.2-1.3,4.8-2.2,5.6c0,1-0.2,2.5,0.4,3c0.4,0.4,0.4-0.3,1.1,0.7
		c2.7-0.1,2.5-2.5,2.5-4.6c0-0.7,0.4-6.1-0.6-6.1c1.2,0.1,2.5,0.2,3.7,0.4c0.1,0.6,0.8,1.7,0.4,2.6c-0.4,0.2-0.7,0.5-1.1,0.7
		c-0.3,0.4-0.3,0.8-0.7,1.1v0.4h1.5C199.1,20.2,198.3,22.7,199.8,24.1L199.8,24.1L199.8,24.1z"/>
	<path class="st0" d="M212.4,14.7c-0.4-0.7-0.8-1.5-0.8-2.3c0-0.6,0-1.1,0-1.7c0,0-0.6-0.5-0.7-0.7h-1.5c-0.3,2.6-1.1,4.9-1.1,7.8
		c1.3,0,2.3,0,3-0.7c0.9-0.2,0.8-0.4,1.5-0.7C213.3,16.1,212.6,15.1,212.4,14.7L212.4,14.7L212.4,14.7z"/>
	<path class="st0" d="M186.5,19c0.3,0.5,0.1,1.4,0,1.9c0,0.3,0,0.6,0,1c0,0.2,0.3,0.6,0.3,0.7c0,0.2,0,0.4,0,0.6
		c0.7-0.3,1.7-0.8,2.1-1.5c0.2-0.3,0.5-0.8,0.6-1.2c0.2-0.6,0-0.5-0.1-1s0-0.7-0.4-1.1c-0.2-0.3-0.5-0.6-0.8-0.9
		c-0.2-0.2-0.9-1.4-1.1-1.4H186c-0.4,0.4,0,0.2-0.8,0.4c0.2,0.5,0.3,1.1,0.6,1.6c0.2,0.3,0.4,0.4,0.6,0.7l0,0L186.5,19z"/>
	<path class="st0" d="M194,25.4c-0.1,0.1-0.3,0.3-0.4,0.6c-0.3,0.9-0.7,1.7-1.3,2.4c-0.4,0.4-0.8,0.8-1.2,1.1c0,0-1,0.9-0.9,0.9
		c-1.1,0-2.1-2.1-2.6-3c-0.3-0.5-0.3-1.6-0.7-1.9h-0.7c0.2,1.1,0.1,2.3,0.4,3.4c0.2,0.9-0.2,1.5-0.1,2.3c0,0.9,0.2,1.6-0.2,2.4
		c-0.3,0.7-0.9,1.3-1,2.1c0,0.6,0,1.1,0.1,1.7c0.1,0.9,0.5,3.6,1.9,3.2c1.2-0.4,0.7-1.3,0.9-2.2c0.1-0.4,0.4-0.7,0.5-1
		c0.1-0.5,0.1-0.8,0.4-1.2c0.5-0.8,0.9-1.6,1.4-2.4c0.2-0.4,0.2-0.8,0.4-1.2s0.4-0.6,0.8-0.9c0.6-0.4,1.2-1.4,1.6-2
		c0.2-0.3,0.3-0.7,0.6-1c0.2-0.2,0.6-0.4,0.8-0.6s0.2-0.6,0.3-0.8c0.2-0.7,0.4-1.4,0.4-2.1C194.8,25.2,194.4,25.2,194,25.4L194,25.4
		L194,25.4z"/>
	<path class="st0" d="M200.2,30c1.1,0,1.6,1.4,2.9,1.1c0.6-0.1,1.1-0.5,1.6-0.8c0.9-0.6,1.8-1.5,2.9-1.8c0.2-0.7,0-0.3,0.4-0.7
		c0-1.1-0.1-1.6-0.4-2.2c-3.7,0.1-5.9,2-8.5,3.3C199.1,28.9,200.2,29.9,200.2,30L200.2,30L200.2,30z"/>
	<path class="st0" d="M209.8,32.6c-2.1,0-4.9,0-5.9,1.1c-1.4-0.2-1.7-0.5-2.2-1.5c-0.6,0.1-1.2,0.2-1.9,0.4c0.1,1,0.2,2,0.4,3
		c0.4,0.3,0,0,0.4,0.4c0.2,0.3,2.2-0.8,2.4-1c0.7-0.5,1.1-0.5,2-0.5c0-0.7,2.7-0.2,2.6,0c0,0.9-0.1,1.8-0.2,2.8c0,0.5,0,1,0,1.4
		c-0.1,0.6-1.1,2.3-1.7,2.5c-1.1,0.3-2.5,0.3-3.6,0.3c0.2,1.8,1,2.6,1.1,4.4c0.2,0,0.7,0.2,0.7,0.4c0.3,0,2.4-0.9,2.6-1.1
		c0.5-0.1,0.9-0.3,1.3-0.7c0.5-0.5,0.6-0.8,0.9-1.5c0.4-1,1-1.8,1.3-2.8c0.2-0.8,0.4-1.6,0.6-2.4c0-1.4,0.7-3,0-3.7
		c-0.2-0.9-0.4-0.8-0.7-1.5l0,0L209.8,32.6z"/>
	<path class="st0" d="M250.1,23c0,0-0.9-0.7-1.1-1.1c0,0-2.9-0.3-3.1-0.3c-1.1,0.1-3,0.9-3.8-0.2c-0.4-0.5-0.1-1.2-0.5-1.8
		c-0.3-0.5-1-0.5-1.3-1c-0.1-0.2-0.3-1.5-0.1-1.5c2-0.4,5.4-1.2,6.3-2.6c0.1,0,0.4-0.2,0.4-0.4c-0.7-0.4-1.1-0.8-1.5-1.5
		c-4.3,0.1-6.4,2.2-10.7,2.2v1.1c0.6,0.1,1.2,0.2,1.9,0.4c1.1,1.9,2.2,3.7,3.3,5.6c-0.2,0.9-0.2,1.2-1.1,1.6c-0.1,0-1.7,0.5-1.7,0.6
		c-0.3-0.4-0.2-0.7-0.2-1.1c0-0.7-0.2-0.8-0.4-1.4c0,0-0.1,0-0.2,0c-0.2,0.5-0.7,0.8-0.9,1.4c-0.2,0.7-0.4,1.2-0.7,1.8
		c0,0.1-0.4,1.3-0.4,1.3c-0.9,0.7-1.7,1.5-2.6,2.2c-0.3,0.3-1.4,0-1.5-0.3c-1.1,0,0.6-2,0.8-2.2c0.7-1,1-1.7,0.7-2.8
		c-0.1-0.5-0.5-2-1.1-2h-1.1c-0.5-1.6,0.5-1.5,1.1-2.7c0.1-0.2,0.2-2.8,0.4-2.8c0.8,0,0.7-1.8,0.8-2.2c-0.7,0-3.7-0.4-4.1-0.7
		c-1.6,0-1.2,0.2-2.2,0.7c0.6,1.1,1.5,1.3,3,1.5c0,2.5-0.6,3.2-1.5,4.8h-1.1c-0.7,0-1.1-2-1.4-2.5c-0.1-0.2-1.5-1.6-1.7-1.6
		c-0.5,0-1.7,0-2.1,0.3c0.1,1.2,0.5,1.8,1.1,2.6c0.2,0.1,0.5,0.2,0.8,0.4c0.2,0.1,0.2,2.9,0.2,3.4c0,0.6-0.2,2.4,0.5,2.6
		s-0.1,5.1-0.4,5.1c-0.8,0-0.5,2.1-0.7,2.6c-0.2,0.6-0.7,1-0.8,1.6c-0.2,1,1.3,3.3,1.8,4.2c0.3,0.5,0.4,1.3,1.2,1.2
		c1.4,0,2.1-2.3,3.1-2.9c0.4-0.3,1-0.1,1.4-0.4c0.5-0.3,2-2,1.9-2.5c1.4-0.1,0.8-3.2,2.3-2.3c0.4,0.2,1.4,2.6,1.3,2.6
		c1.7,0,1.6-0.5,2.6-1.1c0.2-0.1-0.2-4.1-0.7-4.1c0-0.8,0.1-1.8,0.7-2.3c0.5-0.4,1.4-0.3,1.6-0.9c0.6,0,1.2,0.1,1.5,0.5
		c0.5,0.8,0,1.5,0,2c-0.2,1.9,0.4,3.5,0.4,5.3c0,1.4,0,2.8,0,4.2s0,3.1-0.4,4.8c-0.4,1.5-0.1,3.4,0.4,4.8c0.3,0.7,1.6-0.4,1.8-0.7
		c0.3-0.5,0.5-1.3,0.5-1.9c0-1.1-0.1-2.2-0.2-3.3c0-1-0.2-2.2-0.1-3.2c0-0.8,0.5-1.6,0.6-2.3c0-1.4-0.3-3.6,0.4-4.4V31
		c0.7,0.5,1.8,1.1,2.2,1.8c1.7,0,2.3-0.3,3.3-0.7c0.7-1.7,2.7-6.7,1.5-8.9l0,0L250.1,23z M225.3,24.1c0.2-0.4,1.8-1.3,2.1-1.1
		c0,0,0,0,0.1,0s0.4,0.8,0.4,1c0.3,1.3-1.2,3.1-2.4,3.6c-0.7-0.6-0.8-2.8-0.4-3.6l0,0L225.3,24.1z M227.4,33.2
		c-0.5,0.4-1.1,0.5-2.1,0.1c0-1.9,0.1-1.5,0.7-2.6c1.1,0,1.6,0.1,2.2,0.4c-0.1,0.9-0.4,1.7-0.9,2.1L227.4,33.2z M245.3,29.2
		c-0.2,0.3-1.7-0.2-2-0.4c-0.8-0.6-0.6-1.6-0.5-2.5c0.5-0.2,0.5-3.1,1.1-3c1.3,0.1,3.3,0.8,3.3,2.3C247.2,26.9,246,28.1,245.3,29.2
		L245.3,29.2z"/>
	<path class="st0" d="M266.3,16.2c0.1,0,0.3,0,0.4,0.1c0,0,0.6,0.3,0.8,0.4c0,0.2,0.1,0.4,0.3,0.5c0.8,0.3,1.6,0,2.4,0
		c0.2,0,0.9-0.3,1.1-0.4c0.4-0.2,0.9-0.2,1.3-0.4c0.2,0,0.4-0.1,0.6-0.3c0.2-0.2,1.5-0.6,1.8-0.7c0.2-0.1,0.5-0.9,0.7-1
		c0.3,0,3.3-0.5,3.3-0.3c0.2,0.9,4.7,0.3,5.6,0c0-0.9-0.2-0.9-0.4-1.5h-3.7c0,0,0.3-1.6,0.4-1.9l0,0c0.1-0.1,0.9,0,1.1,0
		c0.5,0,0.6-0.3,0.9-0.4c0.7-0.1,1.3,0.4,2,0.3c0.1,0,1.5-0.7,1.5-0.7c0-0.2-0.2-1-0.3-1.1c-0.9-0.3-2.3-0.4-3.7-0.4
		c0,0-0.6-1.6-0.7-1.8c-0.1-0.2-0.3-0.4-0.5-0.6s-0.7-0.3-0.9-0.5c0,0-1.1,0-1.2,0c-1.6,0-1.2,0.2-2.2,0.7c-0.1,0,0,1.9,0,2.1
		c0,0.5,0.2,1.4,0,1.9c-0.2,0.3-0.5,0.3-0.6,0.7c-0.3,0.7-0.9,1.2-1.1,1.9c-0.2,0.4-0.2,1.2-0.7,1.2c-2.3,0.2-4.7,0.5-7,0.7
		c0.1-1.2,0.3-1.1,0.7-1.9c0-0.1,0.6-0.2,0.8-0.3c0.3-0.1,0.6-0.2,0.9-0.3c0.6-0.2,1.3-0.3,2-0.4s1.3-0.3,2-0.4c0.3,0,0.5,0,0.6-0.3
		c0-0.2,0-0.6,0-0.8c-0.1-0.2-0.5-0.2-0.7-0.3s-0.2-0.4-0.4-0.5c-0.4-0.2-1,0-1.4,0c-0.5,0-1,0-1.4,0c-0.5,0-0.4-0.1-0.6-0.5
		c-0.3-0.5-1-0.6-1.3-0.9c-0.5-0.5-1.4-0.4-1.8,0.1s-0.1,1.2-0.2,1.8c-0.1,0.8-0.6,1.4-0.9,2.1c-0.2,0.4-0.4,1.1-0.7,1.5
		c-0.4,0.5-0.9,0.7-1.3,1.3c-0.1,0.2-0.8,2-0.7,2c0.9,0,1.7-0.5,2.5-0.7c0.3,0,0.8-0.2,1.1-0.1l0,0L266.3,16.2z"/>
	<path class="st0" d="M288.3,33.7c0-1.2,0-1.3-0.7-1.9c0-0.1-0.2-0.4-0.4-0.4c-1,1.8-1.8,3.1-2.2,5.6c0,0.2-2.5,0.4-2.8,0.4
		c-1.2,0-2-0.4-3.1-0.8c-0.4-0.1-0.2-2.2-0.3-2.6c-0.2-1-0.4-2,0.1-3c0.1-0.2,0.3-0.5,0.6-0.6c1-0.5,2-1.1,2.8-1.9
		c0.4-0.4,0.9-1,1.2-1.5c0.4-0.5,0.5-1.1,0.9-1.7c0.5-0.7,1.2-1.3,1.1-2.2c0-0.5-0.2-0.9-0.4-1.4c0-0.2-0.7-1.5-0.9-1.5
		c-0.6,0-1.2,0-1.8,0.1c-0.2,0-0.5,0-0.6,0.2c0,0-0.4,0.5-0.2,0.5c-0.8,0.2-1.4,0.2-2.1,0.6c-0.4,0.2-0.8,0.3-1.1,0.5
		c-0.5,0.3-0.4,0.5-1.1,0.3c-0.3,0-1.2-0.3-1.2-0.7v-0.4c-0.7-0.4-1.8-0.3-3-0.4c0.3-1.3,0.7-0.8,0.7-2.6c-1,0.1-2,0.2-3,0.4v0.4
		c-0.5,0.1-1.1,0.1-1.6,0c0,0-0.9-0.6-0.7-0.6c-0.3,0-2.9,0.2-2.9,0.4c-0.3,1.2-0.9,2.2-1.6,3.2c-0.3,0.5-0.7,0.9-1,1.4
		c-0.1,0.2-0.4,0.4-0.4,0.7c0,0.3,0,0.5-0.2,0.8c-0.2,0.2-0.4,0.3-0.5,0.5s0,0.5-0.3,0.7c-0.2,0.2-0.4,0.2-0.5,0.4
		c0,0.1-0.2,0.3-0.2,0.4c-0.2,0.4-0.4,0.8-0.5,1.2c-0.2,0.5-0.3,1-0.3,1.6c0,0.3-0.1,0.5,0,0.8c0.1,0.2,0.4,0.3,0.5,0.5
		c0.2,0.4,0.2,0.8,0.4,1.2c0.2,0.3,0.6,0.6,0.9,0.7c0.4,0,0.7,0.2,1.1,0.3c0.3,0,2.7,0.5,2.7,0.3c0,0.7-0.2,1.3-0.6,1.8
		c-0.9,1.2-2.6,1.5-3.8,2.2c-0.4,0.3-1.2,0.6-1.2,1.1s2.2-0.2,2.3-0.2c0.7-0.3,2.2-0.6,2.8,0.3c0.4,0.6,0,1.3,0,2
		c0.2,1,1.2,2.8,2.4,2.2c1.3-0.6,0.9-2.7,1.1-3.8c0.3-1.5,0.6-3.4,1.6-4.6c0.8-1,5.9-3,4.6-5c-0.4-0.6-1.5-0.2-2-0.7
		c-0.6-0.6-0.3-1.4,0.1-2c0.5-0.6,1.2-0.7,1.9-1c0.4-0.1,1.2-0.9,1.5-0.9c1.4,0,2.8,0,3.7,0.4c0,0,0,1.6,0,1.7s-0.7,1-0.9,1.1
		c-0.5,0.4-1.2,0.2-1.7,0.5c-0.1,0-0.3,0.5-0.7,0.7c-0.3,0.8-0.7,1.6-0.8,2.5c-0.1,0.8,0.2,1.5,0.2,2.2c0,0.8-0.2,1.5,0.1,2.3
		c0.5,1.1,0.7,2.2,1.6,3c1,0.9,2.5,1.5,3.8,1.6c1.5,0.1,2.9-0.5,4.3-0.8c1.1-0.2,1.7-1,2.7-1.5c0.3-1.5,0.7-3.8-0.4-4.8l0,0V33.7z
		 M263.8,24.8h0.4c0.3,0.2-0.7,0.7-0.7,0.7C263.6,25.3,263.7,25,263.8,24.8L263.8,24.8L263.8,24.8z M266.4,30.3
		c0,0.1-0.2,0.3-0.5,0.4s-1.1,0-1.4-0.2c-0.5-0.3-0.5-0.7-0.6-1.2c0.2,0,0.4-0.1,0.4-0.4c0.2,0,2.1,0.3,2.1,0.3
		C266.4,29.7,266.4,30,266.4,30.3C266.4,30.3,266.4,30.3,266.4,30.3z M268.7,33h-1.1c0.3-1,0-0.8,1.1-1.1V33z"/>
	<path class="st0" d="M320.1,36.3c0-0.5-0.9-2.9-1.5-3c-1-0.2-1.8-0.8-2.6-1.1c-1.2-0.4-3-0.3-4.3-0.4s-2.8,0-3.8-0.7
		c0.6-0.9,0.5-2.3,1-3.2c0.3-0.6,0.2-0.4,0.8-0.5c0.4,0,0.7-0.2,0.9-0.6c0.6,0.1,1-0.6,1.5-0.9c0.6-0.4,1.3-0.7,2-0.9
		c0.6-0.1,1.1-0.2,1.6-0.6s0.6-0.6,1.2-0.8c0.3-0.1,0.5-0.4,0.7-0.5c0.8-0.5,1.3-0.8,1.5-1.7c0-0.1,0.4-1.8,0.3-1.8
		c-0.4,0-6.3,0.1-6.3,0c-0.5-0.1-1.3,0-1.8,0c0,0,0-0.2-0.7-0.4c-0.6-0.1-0.2-3.1-0.2-3.5c0-0.9,0-1.7,0-2.6c0-0.8-0.2-1.2-0.6-1.8
		c0-0.1,0-0.4,0-0.5c-0.2-0.4-0.5-0.9-0.8-1.2l0,0c-0.3-0.3-1.1-0.4-1.5-0.5c-1.2-0.3-2.6-0.6-3.5,0.5c-0.6,0.7-0.8,1.9-0.5,2.8
		c0.2,0.6,0.3,1.2,0.5,1.7s0.6,1,0.8,1.5C305,16,305,16.5,305,17c0,0.7,0,2.1,0.5,2.6c0,3.4-0.5,1.9-2.6,2.6
		c-0.6,0.2-1.8,0.4-2.3,0.8c-0.3,0.2-0.4,1.8-0.3,1.8c0.2,0,1,0.7,1.1,0.7c0.4,0.4,1,0.5,1.4,1c0,0,0.8,1.2,0.8,0.9
		c0,0.7-0.3,1.6-0.6,2.1c-0.2,0.4-0.5,0.5-0.8,0.8c-0.1,0.2,0,0.5-0.1,0.8c-0.2,0.3-0.5,0.3-0.7,0.6c-0.4,0.7-0.2,1-0.8,1.5
		c-0.6,0.6-1.4,1-2.1,1.5v1.8c1.2,0,1.9-0.5,3-1c0.9-0.3,1.9-0.2,2.7-1c0.5-0.5,0.7-0.8,1.4-1c0-0.1,1.4,0,1.5,0
		c0.6,0,0.8,0.5,1.3,0.7c0.6,0.2,1.2,0.1,1.8,0.4c0.5,0.2,1,0.7,1.4,1c0.3,0.2,0.5,0.1,0.8,0.4c0.3,0.3,0.3,0.7,0.6,0.9
		c0.3,0.3,0.7,0.3,1.1,0.5s1,0.8,1,0.9c0.2,0,3.6,0.6,3.6,0.4c0-0.6,0.9-0.6,1.2-1c0.4-0.4,0.4-1,0.3-1.5l0,0L320.1,36.3z"/>
	<path class="st0" d="M365.6,15.2h-2.2v0.4h-2.6c0-0.1-0.7,0-0.7,0c-0.5-0.1-1-0.2-1.5-0.4c-0.2,0,0.4-1.4,0.7-1.5
		c0-1.3,0.3-2.5,0.6-3.7c0-0.3,0.6-2.5,0.9-2.5c0.1-0.5,0.6-1.5,0.7-1.5c0.5-1.3-0.2-2,0.7-3c0-0.9-0.2-0.9-0.4-1.5
		c-1.1-0.2-3.6-0.9-5.2-0.4v0.4c-1.7,0.5-3.5,1-5.2,1.5c-0.2-0.9-0.4-1.4-0.4-2.6c-0.1,0-0.4-0.2-0.4-0.4c-1.4,0-2.8,0-3.7,0.4
		c0.2,1.5,0.5,3,0.7,4.4c-0.1,0-1.8,0.3-1.8,0.3c0-0.5-0.5-0.3-0.8-0.6c-0.1-0.1-0.4-0.9-0.4-0.9c-1.9-0.2-1.8-0.3-3.7,0
		c0,1.2,0,1.7,0.7,2.2c0,1.2,0.2,2.7-0.4,3.3c-0.7,0.8-0.8-1.2-1.3-1.6c-0.4-0.3-0.4-0.4-0.7-0.8c-0.1-0.2,0-0.4-0.2-0.5
		c-0.2-0.2-0.4-0.1-0.6-0.3c-0.2-0.2-0.3-0.6-0.5-0.8c-0.1,0-0.7-0.2-0.7-0.4c-1.5,0-3,0.3-3.7,1.1c-0.1,0-0.6,1.1-0.8,1.1
		c0.8,1,1.8,2,2.2,3.3c0,0.3,0.1,0.7,0.3,0.9c0.2,0.3,0.5,0.4,0.7,0.7c0.2,0.4,0,0.9,0,1.2s0,0.8,0,1.2c0,0.5,0.5,1.1,0.5,1.5
		c0,1.9,0.1,1.4,0.7,2.6h2.6c0-0.1,0.2-0.4,0.4-0.4c0.8-1.3-0.8-3,0.7-4.4c0.3-0.4,0,0,0.4-0.4c0.7,1.9,0.4,3.6,1.9,4.8
		c-0.1,0.4-0.2,0.7-0.4,1.1c-1.4,0.2-3.2,0.7-4.4,1.1h-2.2c-0.4,0-1,0.7-1.9,0.4c-0.2-0.4-0.5-0.7-0.7-1.1c-0.2,0-0.8-0.2-0.8-0.4
		c-1.2,0.1-2.5,0.2-3.7,0.4c0,1.2,0,1.8,0.4,2.6c0,0.1,0,0.2,0.1,0.4c0.1,0.6,0.1,1.2,0.2,1.8c0,0.3,0,0.7,0,1s0.1,0.6,0.2,1
		c0,0.2,0,0.5,0.1,0.8c0,0.2,0.2,0.4,0.3,0.6c0.1,0.4,0.3,0.5,0.5,0.7c0.5,0.5,1.1,0.4,1.7,0.4c0.2,0,0.4,0,0.5,0c0-0.1,0-0.3,0-0.5
		s0.1-0.4,0.1-0.7c0.1-0.5,0.3-1,0.4-1.5s0.3-1,0.4-1.4c0-0.1,0.3-1.4,0.4-1.4c5.4-0.9,10.9-1.7,16.3-2.6c0-0.1,1-0.6,1.5-0.7
		c0-0.1,2.1-0.4,3-1.1c0.5,0,1.5,0.2,1.5,0.4c0.1,0,0.4,0.7,0.4,1.1c2,0,2.9-0.2,4.5-0.7c0-0.1,1.5-0.4,2.2-0.4
		c0-0.1,0.5-0.4,0.7-0.4c0.1-0.2,1.1-1,1.5-1.1v-1.5c-0.1,0-0.6-0.7-0.7-1.1l0,0L365.6,15.2z M347.5,18.1h-1.9
		c-0.1-2.8-0.3-6.1,0-9.6h1.1c0.3,0.4,0,0,0.4,0.4c-0.1,0.7-0.2,1.5-0.4,2.2h-0.4c-0.8,2.3,0.5,4.8,1.5,5.6
		C347.8,17.6,347.7,17.6,347.5,18.1L347.5,18.1L347.5,18.1z M350.5,12.2c-0.4,0.1-0.7,0.2-1.1,0.4c0,0-1-1.3-0.4-1.5
		c0-0.2,0.6-1.9,0.8-1.8c1.1,0.8,0.2,0.7,0.7,1.5h0.4C350.9,11.7,350.7,11.7,350.5,12.2L350.5,12.2L350.5,12.2z M352.3,17
		c0.1-1,0.2-2,0.4-3c0.7-0.2,0.3,0,0.7-0.4c1.1,0,1.6,0.1,2.2,0.4C355.6,16.2,354.3,16.8,352.3,17L352.3,17z M356.8,10.3
		c-0.1,0-0.2,0-0.4,0c0.1,0.6-1.9,0.7-1.9,0.7c-0.1-0.3-0.3-0.7-0.3-1c0.3,0,0.8-1.2,0.7-1.2c0.6,0.1,1.2,0.2,1.9,0.4
		C356.8,9.2,356.8,10.1,356.8,10.3L356.8,10.3L356.8,10.3z M357.1,5.9c-1.4,0.2-0.8,0.2-2.2,0c-0.1-0.4-0.2-0.7-0.4-1.1
		c0.2-0.1,0.5-0.2,0.8-0.4c0.2-0.2,0.3-0.4,0.6-0.3c0,0,1.2,0.9,1.2,0.7C357.1,4.8,357.1,5.9,357.1,5.9z"/>
	<path class="st0" d="M359,30.7c-0.1-0.2-0.2-0.5-0.4-0.7c-1.3-0.8-3.2,0.6-5.2,0c0-0.1-0.7-0.4-1.1-0.4c0-0.1-0.2-0.4-0.4-0.4
		c0.4-2.6,3-2.1,3.7-4.5c0.6-0.6,0.8-2.1,0.7-3.3c-2.1,0.1-4.2,0.2-6.3,0.4c-0.1,0.2-0.9,0.7-1.1,0.7c0,0.1-0.5,0.4-0.7,0.4
		c0,0.1-1.2,0.4-1.9,0.4c-0.1,0.2-1.1,0.7-1.5,0.7c-0.1,0.2-1.9,1-2.6,1.1c-1,0.5-2,1-3,1.5c0.2,0.9,0.4,0.8,0.7,1.5h3
		c1.9-1.1,3.7-2.2,5.5-3.3c0.6,0.1,1.2,0.2,1.9,0.4v1.1c-1.4,0.7-2.7,1.5-4.1,2.2c0,1.3,0,1.7,0.8,2.2c-0.1,0.4-0.3,1.1-0.7,1.2
		c-0.3,0-0.6,0-0.9,0.1c-0.3,0-0.5,0-0.8,0.2c-0.3,0-0.6,0.3-0.9,0.4c-0.3,0-0.5,0.1-0.7,0.2c-0.3,0.2-0.6,0-1,0.2s-0.5,0.4-1,0.5
		c-0.3,0-0.6,0-0.9,0c-0.6,0-1.2,0.2-1.8,0.3c-1.2,0.2-2.4,0.4-3.6,0.6c0,1,0.1,1.3,0.4,1.8c2.7,1.1,10.5,1.3,12.2-0.7
		c1,0,1.6,0.1,2.2,0.4c0,0.7-0.2,1.4-0.4,2.1c-0.1,0.4-0.2,0.9-0.2,1.4c0,0.6,0,1.3-0.1,1.8c-0.1,0.3-0.4,0.6-0.5,0.9
		c0,0.2,0,0.8-0.2,0.8c-1.7,0.4-2.7,1.7-4.4,1.9c0-0.1-0.7-0.2-0.7-0.4c-0.6-0.1-1.2-0.2-1.9-0.4c0.2,1.6,0.9,1.5,1.5,2.6
		c1,0.2,2,0.5,3,0.6c0.6,0,1.2,0.1,1.7,0.1c0.3,0,0.6,0,0.9,0c0.2,0,0.4-0.3,0.6-0.4c0.2,0,0.4,0,0.6-0.2c0.4-0.2,0.6-0.5,0.8-0.8
		c0.3-0.3,0.7-0.5,0.9-0.9c0.2-0.4,0.2-0.8,0.4-1.2c0.2-0.5,0.4-0.9,0.6-1.3c0-0.2,0-0.5,0-0.8c0-0.2,0-0.3,0.1-0.5
		c0.1-0.4,0.2-0.9,0.2-1.3c0-0.2,0-0.5,0-0.7c0-0.1,0.2-0.3,0.2-0.4c0.4-1.1,0-2.2,0.2-3.3c0.1-0.9,0.4-1.8,0.7-2.6
		c0.7-0.1,1.5-0.2,2.2-0.4c0-0.1,1.2-0.4,1.9-0.4c0.1-0.2,0.2-0.5,0.4-0.7c0.2,0,0.7-0.2,0.7-0.4c0.1,0,0.1-0.4,0-0.4l0,0L359,30.7z
		"/>
	<path d="M79.8,60.1L79.8,60.1v-8.2H82v12h-2.8l-2.9-8.4l0,0v8.4h-2.2v-12h2.8C76.9,51.9,79.8,60.1,79.8,60.1z"/>
	<path d="M89.9,51.9l3.2,12h-2.5L90,61.4h-3.2l-0.6,2.5h-2.5l3.2-12H89.9L89.9,51.9z M89.6,59.3l-1.2-5.4l0,0l-1.2,5.4
		C87.2,59.3,89.6,59.3,89.6,59.3z"/>
	<path d="M100.8,53.9h-2.6v10h-2.4v-10h-2.6v-2h7.6V53.9L100.8,53.9z"/>
	<path d="M102.8,51.9h2.4v12h-2.4V51.9z"/>
	<path d="M107.8,55.4c0-0.8,0.3-1.4,0.6-2c0.3-0.5,0.7-1,1.2-1.3s1.3-0.5,2.2-0.5s1.6,0.2,2.2,0.5c0.5,0.3,0.9,0.7,1.2,1.3
		c0.3,0.5,0.5,1.2,0.6,2s0.1,1.6,0.1,2.5s0,1.8-0.1,2.5c0,0.8-0.3,1.4-0.6,2c-0.3,0.5-0.7,1-1.2,1.3s-1.3,0.4-2.2,0.4
		s-1.6-0.2-2.2-0.4c-0.5-0.3-0.9-0.7-1.2-1.3c-0.3-0.5-0.5-1.2-0.6-2s-0.1-1.6-0.1-2.5S107.7,56.2,107.8,55.4z M110.1,59.9
		c0,0.6,0.1,1,0.2,1.4s0.3,0.6,0.5,0.8s0.5,0.2,0.9,0.2s0.6,0,0.9-0.2s0.4-0.4,0.5-0.8s0.2-0.8,0.2-1.4c0-0.6,0-1.2,0-2s0-1.5,0-2
		c0-0.6-0.1-1-0.2-1.4s-0.3-0.6-0.5-0.8s-0.5-0.2-0.9-0.2s-0.7,0-0.9,0.2c-0.2,0.2-0.4,0.4-0.5,0.8s-0.2,0.8-0.2,1.4
		c0,0.6,0,1.2,0,2S110.1,59.4,110.1,59.9z"/>
	<path d="M123.7,60.1L123.7,60.1v-8.2h2.2v12h-2.8l-2.9-8.4l0,0v8.4H118v-12h2.8C120.8,51.9,123.7,60.1,123.7,60.1z"/>
	<path d="M133.8,51.9l3.2,12h-2.5l-0.6-2.5h-3.2l-0.6,2.5h-2.5l3.2-12H133.8L133.8,51.9L133.8,51.9z M133.5,59.3l-1.2-5.4l0,0
		l-1.2,5.4H133.5z"/>
	<path d="M138.6,51.9h2.4v10h4.3v2h-6.7V51.9L138.6,51.9z"/>
	<path d="M158.5,53.9h-2.6v10h-2.4v-10h-2.6v-2h7.6V53.9L158.5,53.9z"/>
	<path d="M164.8,51.9l3.2,12h-2.5l-0.6-2.5h-3.2l-0.6,2.5h-2.5l3.2-12H164.8L164.8,51.9L164.8,51.9z M164.4,59.3l-1.2-5.4l0,0
		l-1.2,5.4H164.4z"/>
	<path d="M169.7,51.9h2.4v12h-2.4V51.9z"/>
	<path d="M176.4,51.9l1.3,8.9l0,0l1.4-8.8h2.3l1.4,8.8l0,0l1.3-8.8h2.3l-2.2,12h-2.7l-1.3-8.7l0,0l-1.3,8.7h-2.7L174,52L176.4,51.9
		L176.4,51.9z"/>
	<path d="M193.3,51.9l3.2,12H194l-0.6-2.5h-3.2l-0.6,2.5h-2.5l3.2-12H193.3L193.3,51.9L193.3,51.9z M193,59.3l-1.2-5.4l0,0l-1.2,5.4
		H193z"/>
	<path d="M203.9,60.1L203.9,60.1v-8.2h2.2v12h-2.8l-2.9-8.4l0,0v8.4h-2.2v-12h2.8C201,51.9,203.9,60.1,203.9,60.1z"/>
	<path d="M219.2,60.1L219.2,60.1v-8.2h2.2v12h-2.8l-2.9-8.4l0,0v8.4h-2.2v-12h2.8C216.3,51.9,219.2,60.1,219.2,60.1z"/>
	<path d="M223.8,55.4c0-0.8,0.3-1.4,0.6-2c0.3-0.5,0.7-1,1.2-1.3s1.3-0.5,2.2-0.5s1.6,0.2,2.2,0.5s0.9,0.7,1.2,1.3s0.5,1.2,0.6,2
		s0.1,1.6,0.1,2.5s0,1.8-0.1,2.5c0,0.8-0.3,1.4-0.6,2c-0.3,0.5-0.7,1-1.2,1.3s-1.3,0.4-2.2,0.4s-1.6-0.2-2.2-0.4
		c-0.5-0.3-0.9-0.7-1.2-1.3s-0.5-1.2-0.6-2s-0.1-1.6-0.1-2.5S223.7,56.2,223.8,55.4z M226.2,59.9c0,0.6,0.1,1,0.2,1.4
		s0.3,0.6,0.5,0.8s0.5,0.2,0.9,0.2s0.6,0,0.9-0.2s0.4-0.4,0.5-0.8c0.1-0.3,0.2-0.8,0.2-1.4c0-0.6,0-1.2,0-2s0-1.5,0-2
		c0-0.6-0.1-1-0.2-1.4c-0.1-0.4-0.3-0.6-0.5-0.8s-0.5-0.2-0.9-0.2s-0.6,0-0.9,0.2c-0.2,0.2-0.4,0.4-0.5,0.8s-0.2,0.8-0.2,1.4
		c0,0.6,0,1.2,0,2S226.2,59.4,226.2,59.9z"/>
	<path d="M238.6,51.9c1,0,1.8,0.2,2.4,0.8s0.8,1.3,0.8,2.3s-0.2,1.5-0.5,2s-0.8,0.8-1.5,1l0,0c0.6,0.1,1.1,0.3,1.3,0.6
		c0.3,0.3,0.4,0.8,0.5,1.5c0,0.2,0,0.5,0,0.7c0,0.3,0,0.6,0,0.9c0,0.6,0,1.1,0.1,1.5c0,0.3,0.2,0.6,0.4,0.7l0,0h-2.6
		c-0.1-0.2-0.2-0.4-0.2-0.6s0-0.4,0-0.7v-2.3c0-0.5-0.2-0.8-0.4-1.1s-0.6-0.4-1.1-0.4h-1.3v5.1h-2.4v-12H238.6L238.6,51.9z
		 M237.5,57.1c0.6,0,1-0.1,1.3-0.4s0.5-0.7,0.5-1.4c0-1.1-0.6-1.7-1.7-1.7h-1.1v3.5C236.5,57.1,237.5,57.1,237.5,57.1z"/>
	<path d="M247.9,51.9l1.7,8.5l0,0l1.7-8.5h3.6v12h-2.2v-9.5l0,0l-2.1,9.5h-1.9l-2.1-9.5l0,0v9.5h-2.2v-12h3.6l0,0H247.9z"/>
	<path d="M262.8,51.9l3.2,12h-2.5l-0.5-2.5h-3.2l-0.5,2.5h-2.5l3.2-12h3l0,0H262.8z M262.5,59.3l-1.2-5.4l0,0l-1.2,5.4H262.5
		L262.5,59.3z"/>
	<path d="M267.7,51.9h2.4v10h4.3v2h-6.7L267.7,51.9L267.7,51.9L267.7,51.9z"/>
	<path d="M283.4,60.2c0,0.3,0,0.6,0,0.8s0.1,0.5,0.2,0.7s0.2,0.3,0.4,0.4s0.4,0.2,0.7,0.2s0.5,0,0.7-0.2c0.2-0.1,0.3-0.2,0.4-0.4
		s0.2-0.4,0.2-0.7s0-0.5,0-0.8v-8.4h2.4v8.3c0,0.8-0.1,1.4-0.3,1.9c-0.2,0.5-0.5,0.9-0.9,1.2s-0.8,0.5-1.2,0.6
		c-0.5,0-0.9,0.1-1.4,0.1s-1,0-1.4-0.1c-0.5,0-0.9-0.3-1.2-0.5c-0.4-0.3-0.6-0.7-0.9-1.2s-0.3-1.2-0.3-2v-8.3h2.4v8.3l0,0
		L283.4,60.2z"/>
	<path d="M296.7,60.1L296.7,60.1v-8.2h2.2v12h-2.8l-3-8.4l0,0v8.4h-2.2v-12h2.8l2.9,8.2L296.7,60.1z"/>
	<path d="M301.5,51.9h2.4v12h-2.4V51.9z"/>
	<path d="M310.1,60.7L310.1,60.7l1.8-8.9h2.5l-2.8,12h-3.1l-2.8-12h2.6L310.1,60.7L310.1,60.7L310.1,60.7z"/>
	<path d="M322.8,53.9h-4.3v2.8h4v2h-4v3.2h4.4v2H316v-12h6.7L322.8,53.9L322.8,53.9L322.8,53.9z"/>
	<path d="M329.5,51.9c1,0,1.8,0.2,2.4,0.8s0.8,1.3,0.8,2.3s-0.2,1.5-0.5,2s-0.8,0.8-1.5,1l0,0c0.6,0.1,1,0.3,1.3,0.6
		s0.5,0.8,0.5,1.5c0,0.2,0,0.5,0,0.7c0,0.3,0,0.6,0,0.9c0,0.6,0,1.1,0.1,1.5c0,0.3,0.2,0.6,0.4,0.7l0,0h-2.6
		c-0.1-0.2-0.2-0.4-0.2-0.6s0-0.4,0-0.7v-2.3c0-0.5-0.2-0.8-0.4-1.1s-0.6-0.4-1.1-0.4h-1.3v5.1H325v-12H329.5L329.5,51.9L329.5,51.9
		z M328.4,57.1c0.6,0,1-0.1,1.3-0.4s0.5-0.7,0.5-1.4c0-1.1-0.6-1.7-1.7-1.7h-1.1v3.5L328.4,57.1L328.4,57.1z"/>
	<path d="M337.1,60.5c0,0.3,0,0.5,0,0.8s0.1,0.4,0.2,0.6c0.1,0.2,0.3,0.3,0.5,0.4c0.2,0,0.5,0.1,0.8,0.1s0.7-0.1,1-0.4
		s0.4-0.6,0.4-1.1s0-0.5-0.1-0.7c0-0.2-0.2-0.4-0.4-0.5s-0.4-0.3-0.7-0.4s-0.6-0.3-1-0.4c-0.5-0.2-1-0.4-1.4-0.6
		c-0.4-0.2-0.7-0.5-1-0.8s-0.5-0.6-0.6-1s-0.2-0.8-0.2-1.3c0-1.2,0.3-2.1,1-2.7s1.6-0.9,2.7-0.9s1,0,1.5,0.2s0.8,0.3,1.2,0.6
		c0.3,0.3,0.6,0.6,0.8,1s0.3,0.9,0.3,1.5v0.3h-2.3c0-0.6-0.1-1-0.3-1.3c-0.2-0.3-0.5-0.5-1-0.5s-0.5,0-0.7,0.1
		c-0.2,0-0.3,0.2-0.4,0.3s-0.2,0.3-0.2,0.4c0,0.2,0,0.3,0,0.5c0,0.4,0,0.7,0.2,0.9s0.5,0.5,1,0.7l1.9,0.8c0.5,0.2,0.8,0.4,1.1,0.6
		s0.5,0.5,0.7,0.7s0.3,0.5,0.4,0.8c0,0.3,0.1,0.6,0.1,1c0,1.3-0.4,2.2-1.1,2.8s-1.8,0.9-3.1,0.9s-2.3-0.3-2.9-0.9
		c-0.6-0.6-0.9-1.4-0.9-2.5V60h2.4v0.3l0,0L337.1,60.5z"/>
	<path d="M344.8,51.9h2.4v12h-2.4V51.9z"/>
	<path d="M356.9,53.9h-2.6v10h-2.4v-10h-2.6v-2h7.6V53.9L356.9,53.9z"/>
	<path d="M362.3,56.5L362.3,56.5l1.7-4.6h2.6l-3.1,7.3v4.7h-2.4v-4.7l-3.1-7.3h2.7L362.3,56.5L362.3,56.5L362.3,56.5z"/>
	<g>
		<path class="st1" d="M63.2,31.5c0,17.5-14,31.7-31.5,31.7C14.3,63.3,0,49.2,0,31.7C0,14.3,14,0,31.5,0S63.2,14,63.2,31.5z"/>
		<g>
			<g>
				<path class="st2" d="M21.2,8.4l0.2,0.2c1.9,1.5,2.5,2.3,3.4,5.3l1.5,4.6c0,0,0,0.1,0,0.2l0,0c0.2,0.6,0.8,1,1.4,1l0,0h3.8h3.8
					l0,0c0.6,0,1.2-0.4,1.4-1l0,0c0,0,0-0.1,0-0.2l1.5-4.6c0.8-3,1.5-3.8,3.4-5.3l0.2-0.2c0.4-0.3,0.7-0.8,0.7-1.3S42.2,6,41.8,5.8
					c0,0-0.1,0-0.2-0.1l0,0l0,0c0,0-0.1,0-0.2,0c-2.5-1-5-1.5-7.5-1.7c-0.4-0.8-1.3-1.4-2.4-1.4S29.4,3.2,29.1,4
					c-2.5,0.2-5,0.8-7.5,1.7c0,0-0.1,0-0.2,0l0,0l0,0c0,0-0.1,0-0.2,0.1c-0.4,0.3-0.7,0.8-0.7,1.3S20.8,8.1,21.2,8.4z M22.8,7.1
					c2.8-1,5.6-1.5,8.5-1.5h0.2l0,0l0,0l0,0l0,0l0,0h0.2c2.9,0,5.8,0.5,8.5,1.5c0,0,0.1,0,0.1,0.2s0,0.1-0.1,0.2l0,0
					c-2.8,1.8-3.7,6-3.7,6l-1.3,4.2l0,0c0,0.3-0.3,0.5-0.6,0.5l0,0h-3.2l0,0l0,0h-3.2l0,0c-0.3,0-0.5-0.2-0.6-0.4l0,0l-1.3-4.2
					c0,0-0.9-4.3-3.7-6l0,0c0,0-0.1,0-0.1-0.2c0-0.1,0.1-0.2,0.1-0.2L22.8,7.1z"/>
				<path class="st2" d="M4.1,27.7c0,0.5,0.3,1,0.8,1.3s1,0.3,1.5,0h0.3C9,28,10,27.8,13,28.6l4.7,1c0,0,0.1,0,0.2,0l0,0
					c0.6,0,1.2-0.2,1.6-0.7l0,0l1.9-3.2l1.9-3.2l0,0c0.3-0.6,0.2-1.2-0.2-1.7l0,0c0,0,0,0-0.1-0.1l-3.2-3.6
					c-2.2-2.2-2.5-3.2-2.9-5.6v-0.3c0-0.5-0.4-1-0.8-1.3c-0.5-0.3-1.1-0.3-1.5,0c0,0-0.1,0-0.2,0.1l0,0l0,0c0,0,0,0-0.1,0.1
					c-2.1,1.7-3.8,3.6-5.3,5.7c-0.9,0-1.9,0.4-2.4,1.4c-0.6,1-0.5,2.1,0,2.8c-1.1,2.3-1.8,4.8-2.3,7.4c0,0,0,0.1,0,0.2l0,0l0,0
					c0,0,0,0.1,0,0.2L4.1,27.7z M6,26.9c0.5-2.9,1.5-5.6,3-8.1v-0.2c0.1,0,0.1,0,0.1,0l0,0l0,0l0,0l0,0l0,0l0.1-0.2
					c1.5-2.5,3.3-4.7,5.6-6.6c0,0,0.1-0.1,0.2,0c0,0,0,0.1,0,0.2l0,0c0.1,3.3,3.4,6.3,3.4,6.3l3,3.2l0,0c0.2,0.2,0.2,0.5,0,0.8l0,0
					L19.8,25l0,0l0,0l-1.6,2.7l0,0c-0.1,0.2-0.4,0.4-0.7,0.3l0,0l-4.2-1c0,0-4.2-1.3-7.1,0.2l0,0c0,0-0.1,0-0.2,0S6,27,6,26.9
					L6,26.9z"/>
				<path class="st2" d="M23.1,42.6L23.1,42.6c0.4-0.5,0.5-1.2,0.2-1.7l0,0l-1.9-3.2l-1.9-3.3l0,0c-0.3-0.5-1-0.8-1.6-0.7l0,0
					c0,0-0.1,0-0.2,0l-4.7,1c-3,0.8-4,0.6-6.3-0.3H6.4c-0.5-0.3-1-0.3-1.5,0s-0.8,0.8-0.8,1.3c0,0,0,0.1,0,0.2l0,0l0,0
					c0,0,0,0.1,0,0.2c0.4,2.6,1.2,5.1,2.3,7.4c-0.5,0.7-0.5,1.8,0,2.8c0.6,1,1.5,1.5,2.4,1.4c1.4,2.1,3.2,4,5.3,5.7c0,0,0,0,0.1,0.1
					l0,0l0,0c0,0,0.1,0,0.2,0.1c0.5,0.2,1,0.3,1.5,0s0.8-0.8,0.8-1.3V52c0.4-2.4,0.8-3.4,3-5.6l3.2-3.6c0,0,0,0,0.1-0.1L23.1,42.6z
					 M21.4,41.9L21.4,41.9l-3,3.2c0,0-3.2,2.9-3.4,6.3l0,0c0,0,0,0.1,0,0.2c-0.1,0-0.2,0-0.2,0c-2.2-1.9-4.1-4.1-5.6-6.6v-0.2
					c-0.1,0-0.1,0-0.1,0l0,0l0,0l0,0L9,44.6c-1.4-2.6-2.4-5.3-3-8.1c0,0,0-0.1,0-0.2c0,0,0.1,0,0.2,0l0,0c2.9,1.6,7.1,0.2,7.1,0.2
					l4.2-1l0,0c0.3,0,0.5,0,0.7,0.3l0,0l1.6,2.7l0,0l1.6,2.7l0,0C21.5,41.4,21.4,41.7,21.4,41.9z"/>
				<path class="st2" d="M42,54.8l-0.2-0.2c-1.9-1.5-2.5-2.3-3.4-5.3l-1.5-4.6c0,0,0-0.1,0-0.2l0,0c-0.2-0.6-0.8-1-1.4-1l0,0h-3.8
					h-3.8l0,0c-0.6,0-1.2,0.4-1.4,1l0,0c0,0,0,0.1,0,0.2L25,49.3c-0.8,3-1.5,3.8-3.4,5.3l-0.2,0.2c-0.4,0.3-0.7,0.8-0.7,1.3
					c0,0.6,0.3,1.1,0.7,1.3c0,0,0.1,0,0.2,0.1l0,0l0,0c0,0,0.1,0,0.2,0c2.5,1,5,1.5,7.5,1.7c0.4,0.8,1.3,1.4,2.4,1.4
					s2.1-0.6,2.4-1.4c2.5-0.2,5-0.8,7.5-1.7c0,0,0.1,0,0.2,0l0,0l0,0c0,0,0.1,0,0.2-0.1c0.4-0.3,0.7-0.8,0.7-1.3S42.4,55.1,42,54.8z
					 M40.4,56.1c-2.8,1-5.6,1.5-8.5,1.5h-0.2l0,0l0,0l0,0l0,0l0,0h-0.2c-2.9,0-5.8-0.5-8.5-1.5c0,0-0.1,0-0.1-0.2c0,0,0-0.1,0.1-0.2
					l0,0c2.8-1.8,3.7-6,3.7-6l1.3-4.2l0,0c0-0.3,0.3-0.5,0.6-0.5l0,0h3.2l0,0l0,0H35l0,0c0.3,0,0.5,0.2,0.6,0.4l0,0l1.3,4.2
					c0,0,0.9,4.3,3.7,6l0,0c0,0,0.1,0,0.1,0.2c0,0.1-0.1,0.2-0.1,0.2L40.4,56.1z"/>
				<path class="st2" d="M59.1,35.6c0-0.5-0.3-1-0.8-1.3s-1-0.3-1.5,0h-0.3c-2.3,1-3.3,1.2-6.3,0.4l-4.7-1c0,0-0.1,0-0.2,0l0,0
					c-0.6,0-1.2,0.2-1.6,0.7l0,0l-1.9,3.2l-1.9,3.2l0,0c-0.3,0.6-0.2,1.2,0.2,1.7l0,0c0,0,0,0,0.1,0.1l3.2,3.6
					c2.2,2.2,2.5,3.2,2.9,5.6v0.3c0,0.5,0.4,1,0.8,1.3c0.5,0.3,1.1,0.3,1.5,0c0,0,0.1,0,0.2-0.1l0,0l0,0c0,0,0,0,0.1-0.1
					c2.1-1.7,3.8-3.6,5.3-5.7c0.9,0,1.9-0.4,2.4-1.4c0.6-1,0.5-2.1,0-2.8c1.1-2.3,1.8-4.8,2.3-7.4c0,0,0-0.1,0-0.2l0,0l0,0
					c0,0,0-0.1,0-0.2L59.1,35.6z M57.2,36.3c-0.5,2.9-1.5,5.6-3,8.1v0.2c-0.1,0-0.1,0-0.1,0l0,0l0,0l0,0v0.2
					c-1.6,2.5-3.5,4.7-5.7,6.6c0,0-0.1,0.1-0.2,0c0,0-0.1-0.1,0-0.2l0,0c-0.1-3.3-3.4-6.3-3.4-6.3l-3-3.2l0,0
					c-0.2-0.2-0.2-0.5,0-0.8l0,0l1.6-2.7l0,0l0,0l1.6-2.7l0,0c0.1-0.2,0.4-0.4,0.7-0.3l0,0l4.2,1c0,0,4.2,1.3,7.1-0.2l0,0
					c0,0,0.1,0,0.2,0C57.3,36,57.2,36.2,57.2,36.3L57.2,36.3z"/>
				<path class="st2" d="M40.2,20.6L40.2,20.6c-0.4,0.5-0.5,1.2-0.2,1.7l0,0l1.9,3.2l1.9,3.2l0,0c0.3,0.5,1,0.8,1.6,0.7l0,0
					c0,0,0.1,0,0.2,0l4.7-1c3-0.8,4-0.6,6.3,0.3h0.3c0.5,0.3,1,0.3,1.5,0s0.8-0.8,0.8-1.3c0,0,0-0.1,0-0.2l0,0l0,0c0,0,0-0.1,0-0.2
					c-0.4-2.6-1.2-5.1-2.3-7.4c0.5-0.7,0.5-1.8,0-2.8c-0.6-1-1.5-1.5-2.4-1.4c-1.4-2.1-3.2-4-5.3-5.7c0,0,0,0-0.1-0.1l0,0l0,0
					c0,0-0.1,0-0.2-0.1c-0.5-0.2-1-0.3-1.5,0s-0.8,0.8-0.8,1.3v0.3c-0.4,2.4-0.8,3.4-3,5.6l-3.2,3.6c0,0,0,0-0.1,0.1L40.2,20.6z
					 M41.8,21.4L41.8,21.4l3-3.2c0,0,3.2-2.9,3.4-6.3l0,0c0,0,0-0.1,0-0.2c0.1,0,0.2,0,0.2,0c2.2,1.9,4.1,4.1,5.6,6.6v0.2
					c0.1,0,0.1,0,0.1,0l0,0l0,0l0,0l0,0v0.2c1.6,2.6,2.5,5.3,3.1,8.1c0,0,0,0.1,0,0.2c0,0-0.1,0-0.2,0l0,0c-2.9-1.6-7.1-0.2-7.1-0.2
					l-4.2,1l0,0c-0.3,0-0.5,0-0.7-0.3l0,0l-1.6-2.7l0,0l0,0l-1.6-2.7l0,0C41.7,21.9,41.8,21.6,41.8,21.4z"/>
			</g>
			<rect x="28.9" y="29.4" class="st3" width="1" height="1"/>
			<rect x="28.9" y="26.5" class="st3" width="1" height="0.8"/>
			<path class="st2" d="M40.9,32.5H37v1.3h2.6V34c-1.2,3.5-4.4,5.8-8,5.8s-6.8-2.3-7.9-5.8v-0.2h0.2h2.3v-1.3h-3.9
				c-0.3,0-0.5,0.2-0.5,0.5s0,0,0,0c0.3,2.2,1.4,4.2,3,5.8c1.8,1.7,4.2,2.6,6.7,2.6s4.9-0.9,6.7-2.6c1.6-1.5,2.7-3.5,3-5.7l0,0
				c0-0.3-0.2-0.5-0.5-0.5L40.9,32.5z"/>
			<path class="st2" d="M41.4,30.1L41.4,30.1c-0.3-2.2-1.4-4.2-3-5.7c-1.5-1.4-3.5-2.3-5.5-2.6v1.5c3.1,0.5,5.7,2.6,6.7,5.7v0.2
				h-0.2h-2.3v1.3H41c0.3,0,0.5-0.2,0.5-0.5L41.4,30.1z"/>
			<path class="st2" d="M22.3,30.6h3.9v-1.3h-2.6v-0.2c1.1-3.1,3.7-5.2,6.8-5.7v-1.5c-2.1,0.3-4,1.1-5.5,2.6c-1.6,1.5-2.7,3.6-3,5.8
				l0,0c0,0.3,0.2,0.5,0.5,0.5L22.3,30.6z"/>
			<path class="st2" d="M28.2,37v0.9c2.1-0.5,3-1.7,3.5-2.6c0.5,1,1.5,2.1,3.5,2.6V37c-2.4-0.7-2.9-2.3-3-3H35v-0.9h-2.9v-1.3h-0.9
				V33l0,0c-0.2,0-3,0-3,0v0.9h3C31.1,34.6,30.5,36.2,28.2,37L28.2,37z"/>
			<path class="st2" d="M32.7,26.1h-1.3c0,0-0.2,0-0.2,0.2v4H32v-3.6h0.7v4.4h0.8v-4.4h0.8v3.6H35v-4c0,0,0-0.2-0.2-0.2h-1.3v-0.6
				h1.6v-0.6h-4.2v0.6h1.7v0.6H32.7z"/>
			<path class="st2" d="M29.2,25.8c0.4-0.3,0.5-0.9,0.5-0.9h-0.8c0,0,0,0.6-0.3,0.9h-0.3c0,0-0.2,0-0.2,0.2v4.8c0,0,0,0.2,0.2,0.2
				h2.1c0,0,0.2,0,0.2-0.2v-2c0,0,0-0.2-0.2-0.2h-1.5V28h1.5c0,0,0.2,0,0.2-0.2V26c0,0,0-0.2-0.2-0.2C30.4,25.8,29.2,25.8,29.2,25.8
				z M29.8,29.4v1h-1v-1H29.8z M29.8,27.3h-1v-0.8h1V27.3z"/>
		</g>
	</g>
</g>
</svg>
